<svg xmlns="http://www.w3.org/2000/svg" viewBox="-3 0 400 50">
  <defs>
    <clipPath id="a">
      <path d="M0 0h394v50H0z"/>
    </clipPath>
  </defs>
  <g clip-path="url(#a)">
    <path d="M36.918 46.229q3.1-2.612 3.1-8.1v-6.012q0-4.768-2.025-7.252a8.651 8.651 0 0 0-6.207-2.875 5.834 5.834 0 0 0 2.914-2.58 9.287 9.287 0 0 0 .947-4.475V11.8q0-5.1-3.071-7.546T23.1 1.8H2.259a2.467 2.467 0 0 0-1.8.555 2.465 2.465 0 0 0-.555 1.8v42.336a2.462 2.462 0 0 0 .555 1.8 2.462 2.462 0 0 0 1.8.555h25.088q6.468-.003 9.571-2.617ZM20.16 12.909a2.457 2.457 0 0 1 1.862.653 2.752 2.752 0 0 1 .621 1.96v1.829a2.749 2.749 0 0 1-.621 1.96 2.453 2.453 0 0 1-1.862.653h-5.553v-7.055h5.553Zm2.94 17.118a2.532 2.532 0 0 1 1.862.621 2.631 2.631 0 0 1 .621 1.927v2.548a2.749 2.749 0 0 1-.621 1.96 2.453 2.453 0 0 1-1.862.653h-8.493v-7.709H23.1Zm41.088-15.354a1 1 0 0 1 .686-.261h1.633a1 1 0 0 1 .686.261 2.492 2.492 0 0 1 .555.849l3.071 9.931H60.562l3.071-9.931a2.48 2.48 0 0 1 .555-.849Zm-4.279 22.671h11.564v9.147a2.3 2.3 0 0 0 .621 1.8 2.826 2.826 0 0 0 1.927.555h9.865a2.015 2.015 0 0 0 2.352-2.352V29.243a19.349 19.349 0 0 0-.621-4.508 49.918 49.918 0 0 0-1.927-5.945L78.006 3.959A3.071 3.071 0 0 0 76.8 2.325a3.755 3.755 0 0 0-2.061-.525H57.165a3.882 3.882 0 0 0-2.123.523 3.066 3.066 0 0 0-1.209 1.633l-5.684 14.833a49.534 49.534 0 0 0-1.927 5.945 19.29 19.29 0 0 0-.621 4.508v17.249a2.014 2.014 0 0 0 2.352 2.352h9.6a2.014 2.014 0 0 0 2.352-2.352v-9.147Zm65.1 8.526q3.627-2.972 3.626-8.526v-6.86q0-5.488-2.809-7.84a14.423 14.423 0 0 0-7.383-3.005l-9.734-1.307a1.734 1.734 0 0 1-1.307-.653 2.269 2.269 0 0 1-.457-1.437 2.137 2.137 0 0 1 .457-1.4 1.6 1.6 0 0 1 1.307-.555h15.222a2.467 2.467 0 0 0 1.8-.555 2.464 2.464 0 0 0 .555-1.8V4.155a2.468 2.468 0 0 0-.555-1.8 2.471 2.471 0 0 0-1.8-.555h-18.289q-6.337 0-9.931 2.973T92.118 13.3v6.86q0 5.488 2.777 7.84a14.216 14.216 0 0 0 7.35 3.005l9.8 1.372a1.733 1.733 0 0 1 1.274.588 2.581 2.581 0 0 1 .424 1.633 2.145 2.145 0 0 1-.424 1.339 1.5 1.5 0 0 1-1.274.555H94.47a2.014 2.014 0 0 0-2.352 2.352v7.644a2.014 2.014 0 0 0 2.352 2.352h20.645q6.273.003 9.898-2.97Zm44.055 2.417a2.469 2.469 0 0 0 .555-1.8v-7.64a2.014 2.014 0 0 0-2.352-2.352h-18.028v-5.619h12.74a2.467 2.467 0 0 0 1.8-.555 2.469 2.469 0 0 0 .555-1.8v-6.988a2.472 2.472 0 0 0-.555-1.8 2.471 2.471 0 0 0-1.8-.555h-12.74v-5.027h18.032a2.467 2.467 0 0 0 1.8-.555 2.469 2.469 0 0 0 .555-1.8V4.155a2.472 2.472 0 0 0-.555-1.8 2.471 2.471 0 0 0-1.8-.555h-30.315a2.464 2.464 0 0 0-1.8.555 2.464 2.464 0 0 0-.556 1.8v42.336a2.015 2.015 0 0 0 2.352 2.352h30.315a2.467 2.467 0 0 0 1.801-.556Zm21.057 0a2.469 2.469 0 0 0 .555-1.8v-14.5h10.911v14.5a2.014 2.014 0 0 0 2.352 2.352h10.126a2.014 2.014 0 0 0 2.352-2.352V4.155a2.472 2.472 0 0 0-.555-1.8 2.471 2.471 0 0 0-1.8-.555h-10.119a2.467 2.467 0 0 0-1.8.555 2.464 2.464 0 0 0-.555 1.8v14.177H190.68V4.155a2.472 2.472 0 0 0-.555-1.8 2.471 2.471 0 0 0-1.8-.555H178.2a2.464 2.464 0 0 0-1.8.555 2.464 2.464 0 0 0-.556 1.8v42.336a2.015 2.015 0 0 0 2.352 2.352h10.127a2.467 2.467 0 0 0 1.802-.556Zm73.558-34.071a16.018 16.018 0 0 0-.882-5.455 9.316 9.316 0 0 0-3.136-4.214 16.443 16.443 0 0 0-6.202-2.747 51.97 51.97 0 0 0-20.09 0 16.456 16.456 0 0 0-6.24 2.744 9.323 9.323 0 0 0-3.136 4.214 16.018 16.018 0 0 0-.882 5.455v22.282a16.014 16.014 0 0 0 .882 5.455 9.122 9.122 0 0 0 3.136 4.181 16.8 16.8 0 0 0 6.24 2.711 43.1 43.1 0 0 0 10.061.98 42.683 42.683 0 0 0 10.029-.98 16.785 16.785 0 0 0 6.206-2.711 9.115 9.115 0 0 0 3.135-4.181 16.014 16.014 0 0 0 .882-5.455V14.216Zm-25.741 2.352a2.76 2.76 0 0 1 .98-2.123q.98-.882 4.508-.882t4.508.882a2.76 2.76 0 0 1 .98 2.123v17.575a2.826 2.826 0 0 1-.98 2.189q-.979.882-4.508.882t-4.508-.882a2.826 2.826 0 0 1-.98-2.189V16.568ZM308.3 48.287a2.469 2.469 0 0 0 .555-1.8V26.3a2.472 2.472 0 0 0-.555-1.8 2.472 2.472 0 0 0-1.8-.555h-10.124a2.464 2.464 0 0 0-1.8.555 2.464 2.464 0 0 0-.556 1.8v10.195h-6.337a2.981 2.981 0 0 1-2.254-.784 3.383 3.383 0 0 1-.751-2.417V17.679a3.007 3.007 0 0 1 .98-2.45 4.627 4.627 0 0 1 3-.817h13.589a2.467 2.467 0 0 0 1.8-.555 2.469 2.469 0 0 0 .555-1.8V4.155a2.472 2.472 0 0 0-.555-1.8 2.471 2.471 0 0 0-1.8-.555h-16.324q-8.168 0-12.119 3.267t-3.953 10.061v20.387q0 6.8 3.953 10.061t12.119 3.267H306.5a2.467 2.467 0 0 0 1.8-.556Zm12.31.266a1.283 1.283 0 0 0 .289-.936V40.71a1.049 1.049 0 0 0-1.225-1.225H312.8a1.049 1.049 0 0 0-1.225 1.225v6.908a1.049 1.049 0 0 0 1.225 1.225h6.873a1.284 1.284 0 0 0 .937-.289Zm21.084 0a1.287 1.287 0 0 0 .289-.936v-4.049a1.049 1.049 0 0 0-1.225-1.225h-6.84a2.562 2.562 0 0 1-1.565-.391 1.466 1.466 0 0 1-.51-1.242v-8.1a1.568 1.568 0 0 1 .51-1.276 2.411 2.411 0 0 1 1.565-.425h6.84a1.049 1.049 0 0 0 1.225-1.225v-4.116a1.049 1.049 0 0 0-1.225-1.225h-8.3q-4.254 0-6.312 1.718a6.459 6.459 0 0 0-2.059 5.257V41.9a6.406 6.406 0 0 0 2.059 5.24q2.058 1.7 6.312 1.7h8.3a1.284 1.284 0 0 0 .936-.286Zm24.438-17.745a8.349 8.349 0 0 0-.459-2.841 4.856 4.856 0 0 0-1.633-2.195 8.573 8.573 0 0 0-3.233-1.429 27.066 27.066 0 0 0-10.463 0 8.575 8.575 0 0 0-3.25 1.429 4.848 4.848 0 0 0-1.633 2.195 8.325 8.325 0 0 0-.46 2.841v11.6a8.323 8.323 0 0 0 .46 2.841 4.743 4.743 0 0 0 1.633 2.178 8.752 8.752 0 0 0 3.25 1.412 27.066 27.066 0 0 0 10.463 0 8.75 8.75 0 0 0 3.233-1.412 4.75 4.75 0 0 0 1.633-2.178 8.347 8.347 0 0 0 .459-2.841v-11.6Zm-13.407 1.225a1.438 1.438 0 0 1 .511-1.106 6.23 6.23 0 0 1 4.7 0 1.437 1.437 0 0 1 .51 1.106v9.153a1.472 1.472 0 0 1-.51 1.14 6.231 6.231 0 0 1-4.7 0 1.473 1.473 0 0 1-.511-1.14v-9.153Zm24.106 16.521a1.287 1.287 0 0 0 .289-.936V35.64l2.008 3.709a1.82 1.82 0 0 0 1.8 1.089h1.361a1.822 1.822 0 0 0 1.8-1.089l2.011-3.709v11.978a1.05 1.05 0 0 0 1.225 1.225h5.241a1.05 1.05 0 0 0 1.225-1.225v-22.05a1.05 1.05 0 0 0-1.225-1.225h-5.513a1.6 1.6 0 0 0-.9.238 2.235 2.235 0 0 0-.663.783l-3.029 5.547a2.693 2.693 0 0 1-.289.442.407.407 0 0 1-.323.136h-.306a.41.41 0 0 1-.324-.136 2.693 2.693 0 0 1-.289-.442l-3.062-5.547a2.247 2.247 0 0 0-.664-.783 1.6 1.6 0 0 0-.9-.238h-5.478a1.049 1.049 0 0 0-1.225 1.225v22.05a1.049 1.049 0 0 0 1.225 1.225h5.07a1.284 1.284 0 0 0 .935-.289Z" style="fill:#2f1a44;fill-rule:evenodd"/>
  </g>
</svg>
