<svg xmlns="http://www.w3.org/2000/svg" viewBox="0 0 600 600">
  <defs/>
  <path id="BOC" d="M415.43 530.24v11.023a33.351 33.351 0 0 1-33.351 33.351h-168.14a33.352 33.352 0 0 1-33.352-33.351V530.24H415.43Z" class="cls-1"/>
  <path id="bottom" d="M123.276 489.709a33.352 33.352 0 0 0 33.351 33.352h282.366a33.352 33.352 0 0 0 33.352-33.352L296.132 388.987" class="cls-1"/>
  <path id="left" d="M313.282 223.1 122.819 114.44v362.623l190.692-111.694Z" class="cls-1"/>
  <path id="right" d="m328.031 216.1-14.59-9.421 158.052-92.239v362.623l-161.66-93.139 17.967-10.555Z" class="cls-1"/>
  <path id="top" d="M123.276 101.213V59.134a33.352 33.352 0 0 1 33.351-33.352h49.21c40.8 0 12.035 62.254 46.484 62.254 11.167 0 79.862-.853 90.814-.909 34.336-.175 5-61.345 47.236-61.345h48.622a33.352 33.352 0 0 1 33.352 33.352v41.259L297.108 201.067" class="cls-1"/>
</svg>
