<svg xmlns="http://www.w3.org/2000/svg" viewBox="0 0 24 24">
  <path d="M14.5 2c-1.71 0-3.21 1.174-3.486 2.836a1 1 0 1 0 1.972.328C13.11 4.426 13.61 4 14.5 4c.876 0 1.5.624 1.5 1.5S15.376 7 14.5 7H3a1 1 0 1 0 0 2h11.5C16.424 9 18 7.424 18 5.5S16.424 2 14.5 2zM3 11a1 1 0 1 0 0 2h14.9c1.19 0 2.1.849 2.1 2 0 1.19-.781 2-2.1 2-1.019 0-1.683-.512-1.95-1.316a1 1 0 1 0-1.9.632C14.584 17.912 16.12 19 17.9 19c2.282 0 4.1-1.79 4.1-4 0-2.249-1.89-4-4.1-4H3zm0 4a1 1 0 1 0 0 2h5.5c.876 0 1.5.624 1.5 1.5S9.376 20 8.5 20c-.89 0-1.39-.426-1.514-1.164a1 1 0 1 0-1.972.328C5.29 20.826 6.79 22 8.5 22c1.924 0 3.5-1.576 3.5-3.5S10.424 15 8.5 15H3z"/>
</svg>
