<svg xmlns="http://www.w3.org/2000/svg" viewBox="0 0 30 30">
  <path d="M7.07 2.002a5.21 5.21 0 0 0-3.539 1.53C1.566 5.496 1.5 8.616 3.287 10.688l7.402-7.402A5.289 5.289 0 0 0 7.07 2.002zm15.848.014A5.286 5.286 0 0 0 19.301 3.3l7.4 7.4c1.788-2.07 1.72-5.191-.246-7.156a5.202 5.202 0 0 0-3.537-1.53zM15 5C8.925 5 4 9.925 4 16a10.95 10.95 0 0 0 3.025 7.56l-1.732 1.733a1 1 0 1 0 1.414 1.414l1.824-1.824a10.935 10.935 0 0 0 12.938 0l1.824 1.824a1 1 0 1 0 1.414-1.414l-1.732-1.732A10.95 10.95 0 0 0 26 16c0-6.075-4.925-11-11-11zm-.006 3h.012c.549 0 .994.444.994.994V17H9.994A.993.993 0 0 1 9 16.006v-.012c0-.549.444-.994.994-.994H14V8.994c0-.55.444-.994.994-.994z"/>
</svg>
