<svg xmlns="http://www.w3.org/2000/svg" viewBox="0 0 48 48">
  <path d="M36 28c-3.859 0-7-3.14-7-7 0-4.365 5.197-11.579 5.79-12.387.566-.771 1.854-.771 2.42 0C37.803 9.421 43 16.635 43 21c0 3.86-3.141 7-7 7zM20.5 43c-4.687 0-8.5-3.813-8.5-8.5 0-5.36 6.567-13.958 7.316-14.921.568-.73 1.799-.73 2.367 0C22.433 20.542 29 29.14 29 34.5c0 4.687-3.813 8.5-8.5 8.5zm-10-22A5.506 5.506 0 0 1 5 15.5c0-3.427 3.886-8.383 4.329-8.937.568-.712 1.773-.712 2.342 0C12.114 7.117 16 12.073 16 15.5c0 3.033-2.468 5.5-5.5 5.5z"/>
</svg>
