<svg xmlns="http://www.w3.org/2000/svg" viewBox="0 0 48 48">
  <path d="M24 6C12.972 6 4 14.972 4 26c0 6.136 2.771 11.85 7.601 15.676.265.21.593.324.931.324h22.936c.338 0 .666-.114.932-.324C41.229 37.85 44 32.136 44 26c0-11.028-8.972-20-20-20zm-8.532 30.565c-.292.29-.674.435-1.056.435-.386 0-.772-.148-1.065-.444A14.908 14.908 0 0 1 9 26c0-8.271 6.729-15 15-15 1.715 0 3.397.287 5 .854a1.5 1.5 0 1 1-1 2.828A11.957 11.957 0 0 0 24 14c-6.617 0-12 5.383-12 12 0 3.182 1.235 6.181 3.478 8.444a1.5 1.5 0 0 1-.01 2.121zM24 29a3 3 0 1 1 0-6c.267 0 .521.046.767.112l7.672-7.672a1.5 1.5 0 1 1 2.121 2.121l-7.672 7.672c.066.246.112.5.112.767a3 3 0 0 1-3 3zm10.653 7.556a1.494 1.494 0 0 1-1.065.444 1.5 1.5 0 0 1-1.066-2.556A11.923 11.923 0 0 0 36 26c0-1.374-.229-2.72-.683-4a1.5 1.5 0 1 1 2.828-1.001A14.93 14.93 0 0 1 39 26c0 3.978-1.544 7.727-4.347 10.556z"/>
</svg>
