<svg xmlns="http://www.w3.org/2000/svg" xml:space="preserve" stroke-miterlimit="10" style="fill-rule:nonzero;clip-rule:evenodd;stroke-linecap:round;stroke-linejoin:round" viewBox="0 0 18 14">
  <path d="M10.344 0v1.406a5.61 5.61 0 0 0-4.938 4.938H2.47l1.687-1.657-.937-.906L.906 6.094 0 7l.906.906L3.22 10.22l.937-.906L2.47 7.655h2.937a5.611 5.611 0 0 0 4.938 4.938V14h1.312v-1.406a5.611 5.611 0 0 0 4.938-4.938H18V6.344h-1.406a5.611 5.611 0 0 0-4.938-4.938V0h-1.312Z"/>
  <path fill="#fff" d="M13.655 10.273h-1.366l-2.67-4.645v4.645H8.344V3.734h1.433L12.382 8.3V3.734h1.273v6.539Z"/>
</svg>
