<svg xmlns="http://www.w3.org/2000/svg" viewBox="0 0 24 24">
  <path d="M9.184 3a.638.638 0 0 0-.452 1.09l2.66 2.658a.86.86 0 0 0 1.217 0l2.659-2.658A.639.639 0 0 0 14.814 3h-5.63zm2.8 5.986A1 1 0 0 0 11 10v2a1 1 0 1 0 2 0v-2a1 1 0 0 0-1.016-1.014zm-7.066 2.932a1 1 0 0 0-.695 1.719l1.414 1.414a1 1 0 1 0 1.414-1.414l-1.414-1.414a1 1 0 0 0-.719-.305zm14.133.002a1 1 0 0 0-.688.303l-1.414 1.414a1 1 0 1 0 1.414 1.414l1.414-1.414a1 1 0 0 0-.726-1.717zM12 15c-2.407 0-4.432 1.725-4.898 4H3a1 1 0 1 0 0 2h18a1 1 0 1 0 0-2h-4.102c-.466-2.275-2.49-4-4.898-4z"/>
</svg>
