<svg xmlns="http://www.w3.org/2000/svg" viewBox="0 0 48 48" width="180" height="180">
  <rect x="0" y="0" width="48" height="48" fill="#039be5" />
  <path
    fill="#fff"
    d="M22.285 5.088C12.058 5.962 4 14.552 4 25.002c0 .08.005.156.01.234a1.5 1.5 0 0 0 .023.598l.01.3.232.237 9.954 15.924a1.5 1.5 0 1 0 2.542-1.59L9.096 28.424c1.955.21 4.1-.01 5.914-.592.097-10.744 2.542-18.391 7.275-22.744zm3.43 0c4.73 4.35 7.174 11.991 7.275 22.724 1.829.622 3.98.817 5.924.596L31.23 40.705a1.5 1.5 0 1 0 2.542 1.59l9.954-15.924.232-.236.01-.303a1.5 1.5 0 0 0 .023-.598c.004-.077.01-.153.01-.232 0-10.45-8.058-19.04-18.285-19.914zM24 7.6c-3.917 3.854-5.933 10.725-5.994 20.449a11.728 11.728 0 0 1-1.567-.785c-.392.192-.817.357-1.26.507l4.903 14.22a1.5 1.5 0 0 0 2.836-.98L18.525 28.27c-.088-.034-.17-.075-.257-.11 1.769.714 3.752 1.084 5.753 1.084 1.95 0 3.899-.352 5.663-1.03-.074.03-.145.063-.22.09l-4.382 12.708a1.5 1.5 0 1 0 2.836.976l4.908-14.236a9.76 9.76 0 0 1-1.146-.484c-.531.317-1.1.58-1.686.818C29.937 18.344 27.922 11.459 24 7.6z"
  />
</svg>